<mxfile host="app.diagrams.net" modified="2024-05-28T21:20:53.847Z" agent="Mozilla/5.0 (Windows NT 10.0; Win64; x64) AppleWebKit/537.36 (KHTML, like Gecko) Chrome/122.0.0.0 YaBrowser/24.4.0.0 Safari/537.36" etag="4hKTa5NXLDhgz1JUvyIx" version="24.4.9" type="device">
  <diagram name="Страница — 1" id="P8-OnQYxKXA9JFsqhebJ">
    <mxGraphModel dx="1386" dy="801" grid="1" gridSize="10" guides="1" tooltips="1" connect="1" arrows="1" fold="1" page="1" pageScale="1" pageWidth="827" pageHeight="1169" math="0" shadow="0">
      <root>
        <mxCell id="0" />
        <mxCell id="1" parent="0" />
        <mxCell id="7HSiE4q3ehQyZj8_Og4V-10" style="edgeStyle=orthogonalEdgeStyle;rounded=0;orthogonalLoop=1;jettySize=auto;html=1;entryX=0.5;entryY=0;entryDx=0;entryDy=0;" edge="1" parent="1" source="kgwTF1Z8K2sDrXsC9bys-1" target="kgwTF1Z8K2sDrXsC9bys-5">
          <mxGeometry relative="1" as="geometry">
            <Array as="points">
              <mxPoint x="414" y="100" />
              <mxPoint x="767" y="100" />
            </Array>
          </mxGeometry>
        </mxCell>
        <mxCell id="7HSiE4q3ehQyZj8_Og4V-11" style="edgeStyle=orthogonalEdgeStyle;rounded=0;orthogonalLoop=1;jettySize=auto;html=1;entryX=0.5;entryY=0;entryDx=0;entryDy=0;" edge="1" parent="1" source="kgwTF1Z8K2sDrXsC9bys-1" target="kgwTF1Z8K2sDrXsC9bys-4">
          <mxGeometry relative="1" as="geometry">
            <Array as="points">
              <mxPoint x="414" y="100" />
              <mxPoint x="530" y="100" />
            </Array>
          </mxGeometry>
        </mxCell>
        <mxCell id="7HSiE4q3ehQyZj8_Og4V-12" style="edgeStyle=orthogonalEdgeStyle;rounded=0;orthogonalLoop=1;jettySize=auto;html=1;" edge="1" parent="1" source="kgwTF1Z8K2sDrXsC9bys-1" target="kgwTF1Z8K2sDrXsC9bys-2">
          <mxGeometry relative="1" as="geometry">
            <Array as="points">
              <mxPoint x="414" y="100" />
              <mxPoint x="70" y="100" />
            </Array>
          </mxGeometry>
        </mxCell>
        <mxCell id="7HSiE4q3ehQyZj8_Og4V-13" style="edgeStyle=orthogonalEdgeStyle;rounded=0;orthogonalLoop=1;jettySize=auto;html=1;entryX=0.5;entryY=0;entryDx=0;entryDy=0;" edge="1" parent="1" source="kgwTF1Z8K2sDrXsC9bys-1" target="kgwTF1Z8K2sDrXsC9bys-3">
          <mxGeometry relative="1" as="geometry">
            <Array as="points">
              <mxPoint x="414" y="100" />
              <mxPoint x="300" y="100" />
            </Array>
          </mxGeometry>
        </mxCell>
        <mxCell id="kgwTF1Z8K2sDrXsC9bys-1" value="Генеральный директор" style="rounded=0;whiteSpace=wrap;html=1;" parent="1" vertex="1">
          <mxGeometry x="354" y="20" width="120" height="60" as="geometry" />
        </mxCell>
        <mxCell id="7HSiE4q3ehQyZj8_Og4V-14" style="edgeStyle=orthogonalEdgeStyle;rounded=0;orthogonalLoop=1;jettySize=auto;html=1;entryX=0;entryY=0.5;entryDx=0;entryDy=0;" edge="1" parent="1" source="kgwTF1Z8K2sDrXsC9bys-2" target="7HSiE4q3ehQyZj8_Og4V-5">
          <mxGeometry relative="1" as="geometry" />
        </mxCell>
        <mxCell id="7HSiE4q3ehQyZj8_Og4V-15" style="edgeStyle=orthogonalEdgeStyle;rounded=0;orthogonalLoop=1;jettySize=auto;html=1;entryX=0;entryY=0.5;entryDx=0;entryDy=0;" edge="1" parent="1" source="kgwTF1Z8K2sDrXsC9bys-2" target="7HSiE4q3ehQyZj8_Og4V-6">
          <mxGeometry relative="1" as="geometry" />
        </mxCell>
        <mxCell id="7HSiE4q3ehQyZj8_Og4V-16" style="edgeStyle=orthogonalEdgeStyle;rounded=0;orthogonalLoop=1;jettySize=auto;html=1;entryX=0;entryY=0.5;entryDx=0;entryDy=0;" edge="1" parent="1" source="kgwTF1Z8K2sDrXsC9bys-2" target="7HSiE4q3ehQyZj8_Og4V-7">
          <mxGeometry relative="1" as="geometry" />
        </mxCell>
        <mxCell id="kgwTF1Z8K2sDrXsC9bys-2" value="Отдел разработки" style="rounded=0;whiteSpace=wrap;html=1;" parent="1" vertex="1">
          <mxGeometry x="10" y="130" width="120" height="60" as="geometry" />
        </mxCell>
        <mxCell id="7HSiE4q3ehQyZj8_Og4V-17" style="edgeStyle=orthogonalEdgeStyle;rounded=0;orthogonalLoop=1;jettySize=auto;html=1;entryX=0;entryY=0.5;entryDx=0;entryDy=0;" edge="1" parent="1" source="kgwTF1Z8K2sDrXsC9bys-3" target="7HSiE4q3ehQyZj8_Og4V-9">
          <mxGeometry relative="1" as="geometry" />
        </mxCell>
        <mxCell id="kgwTF1Z8K2sDrXsC9bys-3" value="Отдел редактирования сайта" style="rounded=0;whiteSpace=wrap;html=1;" parent="1" vertex="1">
          <mxGeometry x="240" y="130" width="120" height="60" as="geometry" />
        </mxCell>
        <mxCell id="7HSiE4q3ehQyZj8_Og4V-18" style="edgeStyle=orthogonalEdgeStyle;rounded=0;orthogonalLoop=1;jettySize=auto;html=1;entryX=0;entryY=0.5;entryDx=0;entryDy=0;" edge="1" parent="1" source="kgwTF1Z8K2sDrXsC9bys-4" target="7HSiE4q3ehQyZj8_Og4V-8">
          <mxGeometry relative="1" as="geometry" />
        </mxCell>
        <mxCell id="7HSiE4q3ehQyZj8_Og4V-19" style="edgeStyle=orthogonalEdgeStyle;rounded=0;orthogonalLoop=1;jettySize=auto;html=1;entryX=0;entryY=0.5;entryDx=0;entryDy=0;" edge="1" parent="1" source="kgwTF1Z8K2sDrXsC9bys-4" target="7HSiE4q3ehQyZj8_Og4V-1">
          <mxGeometry relative="1" as="geometry" />
        </mxCell>
        <mxCell id="kgwTF1Z8K2sDrXsC9bys-4" value="Отдел связи с пользователями" style="rounded=0;whiteSpace=wrap;html=1;" parent="1" vertex="1">
          <mxGeometry x="470" y="130" width="120" height="60" as="geometry" />
        </mxCell>
        <mxCell id="7HSiE4q3ehQyZj8_Og4V-20" style="edgeStyle=orthogonalEdgeStyle;rounded=0;orthogonalLoop=1;jettySize=auto;html=1;entryX=0;entryY=0.5;entryDx=0;entryDy=0;" edge="1" parent="1" source="kgwTF1Z8K2sDrXsC9bys-5" target="7HSiE4q3ehQyZj8_Og4V-4">
          <mxGeometry relative="1" as="geometry" />
        </mxCell>
        <mxCell id="7HSiE4q3ehQyZj8_Og4V-21" style="edgeStyle=orthogonalEdgeStyle;rounded=0;orthogonalLoop=1;jettySize=auto;html=1;entryX=0;entryY=0.5;entryDx=0;entryDy=0;" edge="1" parent="1" source="kgwTF1Z8K2sDrXsC9bys-5" target="7HSiE4q3ehQyZj8_Og4V-2">
          <mxGeometry relative="1" as="geometry" />
        </mxCell>
        <mxCell id="7HSiE4q3ehQyZj8_Og4V-22" style="edgeStyle=orthogonalEdgeStyle;rounded=0;orthogonalLoop=1;jettySize=auto;html=1;entryX=0;entryY=0.5;entryDx=0;entryDy=0;" edge="1" parent="1" source="kgwTF1Z8K2sDrXsC9bys-5" target="7HSiE4q3ehQyZj8_Og4V-3">
          <mxGeometry relative="1" as="geometry" />
        </mxCell>
        <mxCell id="kgwTF1Z8K2sDrXsC9bys-5" value="Финансовый отдел" style="rounded=0;whiteSpace=wrap;html=1;" parent="1" vertex="1">
          <mxGeometry x="707" y="130" width="120" height="60" as="geometry" />
        </mxCell>
        <mxCell id="7HSiE4q3ehQyZj8_Og4V-1" value="Клиентский сервер" style="rounded=0;whiteSpace=wrap;html=1;" vertex="1" parent="1">
          <mxGeometry x="550" y="310" width="120" height="60" as="geometry" />
        </mxCell>
        <mxCell id="7HSiE4q3ehQyZj8_Og4V-2" value="Менеджер по продажам билетов" style="rounded=0;whiteSpace=wrap;html=1;" vertex="1" parent="1">
          <mxGeometry x="790" y="310" width="120" height="60" as="geometry" />
        </mxCell>
        <mxCell id="7HSiE4q3ehQyZj8_Og4V-3" value="Финансовый аналитик" style="rounded=0;whiteSpace=wrap;html=1;" vertex="1" parent="1">
          <mxGeometry x="790" y="400" width="120" height="60" as="geometry" />
        </mxCell>
        <mxCell id="7HSiE4q3ehQyZj8_Og4V-4" value="Главный бухгалтер" style="rounded=0;whiteSpace=wrap;html=1;" vertex="1" parent="1">
          <mxGeometry x="790" y="220" width="120" height="60" as="geometry" />
        </mxCell>
        <mxCell id="7HSiE4q3ehQyZj8_Og4V-5" value="Главный разработчик" style="rounded=0;whiteSpace=wrap;html=1;" vertex="1" parent="1">
          <mxGeometry x="90" y="210" width="120" height="60" as="geometry" />
        </mxCell>
        <mxCell id="7HSiE4q3ehQyZj8_Og4V-6" value="Дизайнер" style="rounded=0;whiteSpace=wrap;html=1;" vertex="1" parent="1">
          <mxGeometry x="90" y="290" width="120" height="60" as="geometry" />
        </mxCell>
        <mxCell id="7HSiE4q3ehQyZj8_Og4V-7" value="fullstack&amp;nbsp;&lt;div&gt;разработчик&lt;/div&gt;" style="rounded=0;whiteSpace=wrap;html=1;" vertex="1" parent="1">
          <mxGeometry x="90" y="370" width="120" height="60" as="geometry" />
        </mxCell>
        <mxCell id="7HSiE4q3ehQyZj8_Og4V-8" value="Менеджер по технической поддержке" style="rounded=0;whiteSpace=wrap;html=1;" vertex="1" parent="1">
          <mxGeometry x="550" y="220" width="120" height="60" as="geometry" />
        </mxCell>
        <mxCell id="7HSiE4q3ehQyZj8_Og4V-9" value="Специалист по контенту" style="rounded=0;whiteSpace=wrap;html=1;" vertex="1" parent="1">
          <mxGeometry x="320" y="210" width="120" height="60" as="geometry" />
        </mxCell>
      </root>
    </mxGraphModel>
  </diagram>
</mxfile>
